<?xml version="1.0" standalone="no"?>
<!DOCTYPE svg PUBLIC "-//W3C//DTD SVG 20010904//EN"
 "http://www.w3.org/TR/2001/REC-SVG-20010904/DTD/svg10.dtd">
<svg version="1.0" xmlns="http://www.w3.org/2000/svg"
 width="360.000000pt" height="360.000000pt" viewBox="0 0 360.000000 360.000000"
 preserveAspectRatio="xMidYMid meet">

<g transform="translate(0.000000,360.000000) scale(0.100000,-0.100000)"
fill="#000000" stroke="none">
<path d="M1625 3369 c-724 -99 -1278 -672 -1345 -1390 -20 -208 8 -449 73
-650 71 -214 182 -395 350 -568 219 -225 484 -372 804 -443 84 -19 128 -22
313 -22 185 0 229 3 313 21 298 68 549 200 759 402 261 249 419 557 469 910
17 121 6 401 -20 516 -144 623 -600 1074 -1218 1205 -114 24 -386 35 -498 19z
m445 -220 c523 -86 943 -472 1060 -976 102 -437 -26 -901 -339 -1226 -344
-357 -818 -494 -1296 -376 -345 86 -667 351 -828 681 -88 180 -125 329 -134
533 -21 491 222 944 642 1196 152 91 350 159 525 178 95 11 271 6 370 -10z"/>
<path d="M1715 2946 c-5 -2 -43 -9 -82 -16 -40 -6 -73 -17 -73 -23 0 -11 278
-678 286 -686 4 -4 31 54 190 396 51 112 103 222 114 245 11 23 19 43 17 44
-2 2 -32 11 -67 19 -59 15 -358 31 -385 21z"/>
<path d="M1220 2754 c-65 -43 -250 -226 -250 -247 0 -8 96 -257 214 -553 117
-297 221 -560 231 -586 10 -27 21 -48 24 -48 4 0 32 55 63 123 31 67 82 177
114 245 l57 122 162 0 c118 0 165 -3 172 -12 5 -7 54 -120 108 -250 55 -131
102 -238 105 -238 3 0 35 69 72 153 37 83 151 341 253 572 103 231 189 431
191 445 4 20 -7 39 -53 92 -86 99 -234 220 -250 205 -3 -4 -82 -170 -175 -369
-93 -200 -188 -401 -211 -448 l-42 -85 -125 -1 c-69 -1 -144 1 -168 5 l-43 6
-82 195 c-46 107 -132 311 -191 453 -60 141 -112 257 -115 257 -4 0 -31 -16
-61 -36z"/>
<path d="M780 2122 c-39 -147 -46 -357 -15 -502 54 -261 200 -496 406 -655 58
-46 154 -105 168 -105 5 0 -68 179 -161 397 -93 219 -217 511 -275 648 -58
138 -106 252 -108 254 -2 1 -9 -15 -15 -37z"/>
<path d="M2682 1673 c-121 -258 -249 -526 -283 -598 -82 -175 -100 -217 -95
-223 9 -8 141 75 218 137 268 214 420 525 422 866 1 108 -15 239 -33 273 -4 7
-102 -188 -229 -455z"/>
<path d="M1771 1349 c-32 -68 -104 -218 -160 -333 -56 -116 -100 -215 -97
-222 14 -37 309 -66 457 -45 84 12 159 30 159 38 0 6 -291 677 -296 682 -2 2
-30 -52 -63 -120z"/>
</g>
</svg>
