<?xml version="1.0" standalone="no"?>
<!DOCTYPE svg PUBLIC "-//W3C//DTD SVG 20010904//EN"
 "http://www.w3.org/TR/2001/REC-SVG-20010904/DTD/svg10.dtd">
<svg version="1.0" xmlns="http://www.w3.org/2000/svg"
 width="1024.000000pt" height="1838.000000pt" viewBox="0 0 1024.000000 1838.000000"
 preserveAspectRatio="xMidYMid meet">

<g transform="translate(0.000000,1838.000000) scale(0.100000,-0.100000)"
fill="#000000" stroke="none">
<path d="M5181 18075 c-123 -162 -227 -295 -231 -295 -5 0 -70 66 -146 148
-180 192 -375 383 -388 379 -18 -6 -104 -186 -176 -368 -38 -98 -83 -208 -100
-245 l-30 -66 -32 23 c-18 13 -123 91 -233 174 -110 83 -221 166 -247 183 -70
48 -220 133 -225 128 -2 -2 5 -64 16 -137 48 -320 51 -621 11 -1364 -68 -1277
-183 -2158 -601 -4585 -50 -289 -91 -525 -92 -526 -1 0 -33 -9 -72 -19 -38
-10 -115 -41 -169 -68 -172 -86 -309 -245 -370 -427 -62 -188 -52 -414 30
-640 61 -171 111 -243 199 -287 57 -29 107 -72 99 -85 -3 -5 -10 -96 -15 -201
-9 -213 -26 -299 -83 -442 -23 -57 -54 -176 -90 -350 -85 -399 -153 -641 -193
-680 -8 -9 -34 -15 -61 -15 -72 0 -180 -27 -248 -60 -69 -34 -78 -49 -127
-206 -63 -199 -87 -410 -87 -750 l0 -243 -53 -83 c-209 -327 -408 -784 -507
-1165 -7 -27 -18 -44 -30 -48 -24 -8 -25 -15 -40 -180 -6 -71 -22 -202 -35
-290 -13 -88 -33 -237 -44 -330 -37 -315 -104 -641 -201 -985 -115 -406 -220
-803 -321 -1210 -44 -179 -98 -386 -119 -460 -21 -74 -45 -171 -53 -215 -100
-510 -125 -747 -106 -998 8 -107 8 -164 0 -209 -13 -73 -17 -66 93 -155 151
-121 335 -216 583 -303 l123 -43 -2 -131 c-1 -98 3 -145 15 -188 l18 -58 3368
0 3368 0 17 113 c24 147 33 474 17 604 -24 193 -76 385 -148 542 -18 41 -32
75 -31 76 2 1 32 22 68 46 83 55 230 197 286 275 24 33 64 104 90 157 54 113
65 187 44 315 -36 229 -211 628 -503 1149 -54 94 -97 177 -97 183 0 22 107
175 175 250 85 94 109 146 136 296 26 142 37 532 20 682 l-10 93 -114 142
c-393 490 -825 911 -1303 1273 -144 109 -151 117 -183 182 l-33 68 20 54 c11
30 33 89 50 131 40 98 55 192 46 294 -7 93 -15 103 -129 189 -155 117 -334
200 -550 256 -65 17 -121 33 -123 35 -2 2 9 26 25 52 42 70 72 149 85 225 l12
67 136 0 c152 -1 229 10 334 48 155 55 295 171 390 325 46 74 50 78 85 78 20
0 74 -10 121 -21 53 -14 125 -23 190 -24 58 -2 137 -10 175 -18 171 -38 309
-51 530 -51 168 0 244 4 320 18 132 23 304 82 401 137 108 60 253 205 314 314
l45 80 7 350 c10 502 32 839 73 1120 l15 100 130 135 c160 165 251 271 318
370 56 85 150 267 178 348 l19 53 -35 29 -35 29 18 28 c43 67 77 153 87 220
23 168 -41 401 -180 645 -28 49 -50 89 -50 91 0 2 24 2 54 -1 69 -6 123 23
157 82 21 36 24 53 23 136 -2 107 -27 208 -95 369 -22 54 -39 111 -39 132 0
61 37 336 76 559 57 331 118 628 335 1610 83 377 179 715 274 968 60 160 83
204 219 417 53 83 121 200 152 262 56 112 56 112 44 161 -17 73 -56 107 -124
107 -45 0 -74 -11 -226 -88 -158 -79 -414 -176 -428 -163 -2 3 -15 182 -28
397 -13 216 -26 394 -29 397 -3 3 -127 -54 -276 -127 l-272 -133 -131 131
c-72 72 -135 131 -140 131 -5 0 -85 -28 -178 -62 -98 -35 -172 -57 -177 -52
-5 5 -59 171 -120 369 -62 198 -114 361 -116 363 -2 2 -119 -107 -260 -242
-141 -135 -260 -246 -265 -246 -4 0 -53 141 -110 313 -56 171 -104 314 -105
316 -2 2 -129 -117 -281 -263 -153 -146 -281 -266 -286 -266 -4 0 -93 144
-199 320 -106 176 -195 319 -199 318 -4 -2 -103 -124 -220 -273 -117 -148
-215 -271 -219 -272 -3 -1 -102 122 -220 273 -118 151 -215 274 -215 274 -1 0
-102 -133 -225 -295z m459 -215 c105 -135 195 -246 199 -248 4 -1 101 117 216
262 114 146 211 263 215 261 4 -2 89 -142 190 -310 100 -168 186 -305 191
-305 4 0 126 113 269 251 144 138 263 250 264 248 2 -2 51 -147 108 -323 l104
-318 256 246 c142 135 261 246 266 246 7 0 124 -361 199 -612 8 -27 20 -48 26
-48 7 0 101 32 210 71 l199 72 137 -137 138 -138 223 112 c122 61 224 109 226
107 2 -2 13 -170 25 -373 12 -203 25 -373 29 -378 11 -11 240 47 360 91 52 19
163 69 247 111 84 42 155 73 159 70 9 -10 -91 -194 -186 -343 -112 -174 -168
-283 -228 -446 -108 -292 -204 -647 -327 -1219 -37 -168 -97 -449 -135 -625
-116 -536 -185 -932 -220 -1262 l-11 -102 44 -103 c77 -178 115 -326 102 -395
-7 -41 -21 -48 -73 -34 -34 10 -43 19 -70 69 -17 31 -48 75 -69 96 -45 45
-292 240 -298 235 -2 -3 5 -35 15 -73 15 -51 17 -73 9 -88 -16 -29 -5 -57 47
-123 160 -205 336 -512 395 -686 37 -109 49 -247 30 -326 -13 -52 -66 -143
-84 -143 -5 0 -56 26 -111 59 -458 267 -901 402 -1416 433 l-195 11 19 86 c14
66 19 128 20 271 0 198 -14 287 -70 438 -77 203 -270 492 -330 492 -36 0 -64
-28 -64 -65 0 -24 11 -47 43 -87 142 -175 239 -377 278 -578 24 -124 11 -439
-21 -489 -5 -9 -46 7 -150 59 -473 237 -964 384 -1520 456 -188 25 -233 27
-550 27 -220 -1 -393 -6 -478 -15 -75 -7 -136 -10 -139 -5 -8 13 6 141 23 215
27 121 89 240 185 354 64 76 72 105 39 138 -36 36 -73 26 -125 -32 -100 -111
-178 -250 -221 -395 -22 -75 -27 -113 -31 -254 -10 -327 41 -614 157 -879 169
-387 513 -701 969 -884 112 -44 231 -64 436 -72 220 -9 411 8 522 47 161 57
324 151 455 262 l66 57 133 -11 c74 -6 156 -19 186 -30 30 -10 113 -28 186
-39 247 -40 290 -50 368 -90 42 -21 95 -44 117 -51 90 -26 187 -168 218 -318
l15 -73 -31 -65 c-54 -117 -186 -221 -325 -258 -98 -25 -263 -19 -542 20 -137
19 -292 35 -346 37 -93 3 -100 2 -118 -21 -25 -31 -24 -57 4 -85 20 -20 36
-23 137 -29 63 -4 207 -20 320 -37 349 -51 497 -49 651 9 67 25 162 85 221
139 33 29 70 48 153 76 61 21 143 53 184 72 41 19 76 33 78 31 1 -2 -4 -54
-12 -116 -38 -293 -65 -753 -65 -1140 l0 -233 -30 -57 c-192 -359 -693 -497
-1370 -375 -74 13 -151 28 -170 32 -19 5 -52 4 -73 -1 -29 -7 -63 -4 -155 17
-65 14 -127 26 -137 26 -32 0 -382 99 -590 167 -598 196 -1171 457 -1738 793
-70 41 -127 77 -127 80 0 3 26 19 58 35 50 26 57 34 60 63 4 42 -21 72 -59 72
-37 0 -416 -196 -435 -225 -18 -28 -10 -71 16 -85 32 -17 58 -11 138 29 l78
39 74 -45 c721 -440 1461 -770 2170 -968 74 -21 138 -41 142 -44 13 -11 -69
-128 -133 -191 -74 -73 -188 -131 -301 -154 -97 -20 -263 -20 -404 -1 -127 17
-173 33 -240 80 -27 19 -60 35 -73 35 -35 0 -61 -28 -61 -66 0 -25 8 -39 38
-64 53 -44 145 -88 213 -101 67 -13 69 -17 44 -109 -32 -120 -69 -175 -213
-311 -21 -20 -39 -43 -39 -50 -1 -8 -8 -41 -17 -73 -8 -32 -34 -161 -56 -285
-43 -241 -61 -314 -90 -372 l-19 -36 94 -86 c212 -196 383 -442 454 -654 19
-58 34 -137 45 -249 l5 -50 -62 -13 c-34 -7 -111 -28 -170 -48 -60 -19 -110
-33 -112 -31 -2 2 -15 39 -30 83 -58 173 -176 359 -298 471 -120 109 -285 205
-429 250 l-58 18 0 51 c0 28 7 101 16 161 22 155 23 314 1 387 -29 96 -56 115
-275 207 -691 288 -1267 569 -1734 848 -136 81 -180 112 -189 134 -18 45 -3
132 40 228 78 171 123 329 210 745 30 143 63 270 82 315 60 147 80 248 90 455
11 239 15 259 54 262 154 13 305 89 305 153 0 31 -33 70 -58 70 -8 0 -38 -13
-66 -29 -72 -41 -148 -61 -233 -61 -64 0 -83 5 -141 34 -67 34 -68 35 -110
123 -65 139 -93 248 -99 389 -10 221 40 359 181 500 94 93 179 141 315 175 75
19 92 20 155 10 38 -7 89 -20 112 -30 55 -25 119 -84 151 -140 40 -69 53 -81
89 -81 36 0 64 29 64 65 0 29 -63 132 -111 180 -57 59 -134 102 -223 125 -44
11 -80 21 -81 23 -1 1 27 164 61 362 361 2078 510 3119 589 4125 49 631 77
1483 56 1724 -6 71 -9 131 -6 134 3 3 75 -48 161 -114 242 -185 429 -314 455
-314 16 0 91 162 186 400 52 129 98 239 102 243 5 5 94 -83 199 -195 207 -221
320 -327 330 -311 4 6 101 135 217 287 l210 276 21 -23 c12 -12 108 -132 214
-267z m-559 -5626 l45 -6 -1 -57 c0 -77 33 -128 106 -165 87 -43 205 -29 272
32 30 26 57 88 57 126 0 33 2 35 28 31 15 -3 83 -14 152 -26 248 -40 562 -125
805 -217 239 -91 585 -252 585 -273 0 -5 -18 -45 -40 -89 -22 -44 -63 -134
-90 -200 -62 -153 -128 -248 -260 -380 -144 -144 -307 -247 -488 -309 -94 -32
-343 -47 -532 -32 -190 15 -253 29 -381 86 -536 234 -855 625 -953 1165 -15
79 -37 272 -32 277 6 6 217 25 355 32 212 11 320 12 372 5z m2606 -637 c7 -5
8 -19 3 -42 -27 -119 90 -234 214 -211 72 14 145 93 146 159 0 15 2 27 4 27
20 0 264 -80 356 -117 213 -84 615 -300 644 -346 14 -22 -50 -153 -142 -292
-71 -108 -227 -273 -326 -345 -119 -86 -378 -221 -394 -205 -3 3 -6 63 -7 133
-1 150 -17 204 -94 305 -43 57 -56 67 -171 124 -69 35 -168 77 -220 94 -131
42 -364 97 -487 114 -92 13 -193 48 -193 66 0 25 118 324 178 453 l46 99 216
-5 c119 -2 221 -7 227 -11z m-4963 -5073 c214 -41 390 -144 483 -285 26 -38
44 -71 42 -73 -2 -2 -74 -39 -159 -81 -268 -134 -398 -232 -455 -346 -26 -49
-28 -63 -26 -153 2 -123 23 -176 92 -241 135 -127 299 -135 481 -25 37 22 69
40 72 40 2 0 -2 -23 -9 -50 -53 -202 -38 -437 39 -588 95 -187 266 -264 370
-167 l26 24 16 -32 c40 -78 108 -120 196 -120 46 0 73 7 135 38 66 32 96 56
198 160 161 164 400 366 526 444 131 81 325 178 449 224 335 124 613 124 809
-3 88 -56 182 -167 240 -282 l51 -103 -14 -75 c-72 -396 -518 -870 -1336
-1422 -317 -214 -455 -296 -685 -408 -241 -117 -275 -127 -550 -166 -158 -23
-483 -23 -610 -1 -78 13 -103 23 -190 75 -55 32 -149 88 -210 123 -86 51 -134
88 -228 179 -583 562 -863 1373 -809 2340 l9 165 75 207 c42 114 89 230 104
258 36 67 172 196 262 250 182 107 375 138 606 94z m3398 -416 c462 -348 922
-794 1293 -1257 98 -122 99 -125 107 -190 19 -178 6 -503 -28 -671 -20 -94
-33 -120 -106 -200 -60 -66 -168 -221 -206 -296 -11 -22 -45 -65 -75 -96 -96
-97 -251 -161 -676 -278 -124 -34 -242 -69 -264 -77 -76 -31 -363 -2 -675 67
-189 43 -409 105 -464 133 l-48 23 117 80 c408 277 799 612 1006 862 194 234
305 459 323 654 6 73 5 77 -33 159 -80 170 -184 298 -310 380 -49 32 -62 46
-57 58 23 49 9 382 -26 601 -11 69 -20 131 -20 138 0 17 2 16 142 -90z m-1986
17 c237 -31 424 -122 584 -284 114 -115 192 -245 245 -406 14 -42 25 -79 25
-81 0 -2 -53 -30 -117 -63 -251 -129 -479 -304 -738 -567 -126 -127 -181 -164
-247 -164 -125 0 -130 277 -9 536 85 181 232 362 363 447 48 31 66 53 118 138
33 56 59 103 57 105 -7 8 -257 -134 -311 -176 -201 -154 -368 -434 -517 -862
-40 -116 -54 -123 -119 -58 -49 49 -86 120 -106 207 -22 95 -14 299 16 403 50
174 169 369 270 444 136 101 220 189 220 231 0 31 -40 65 -76 65 -27 0 -43
-11 -101 -74 -37 -40 -91 -90 -120 -110 -28 -20 -76 -67 -107 -105 -74 -90
-205 -215 -287 -274 -170 -121 -282 -132 -382 -38 -45 41 -57 73 -57 149 0 62
4 75 33 118 51 78 151 144 427 283 273 138 273 138 480 155 79 7 341 -5 456
-19z m750 -2986 c349 -121 904 -239 1131 -239 88 0 92 -1 113 -27 24 -30 170
-321 170 -339 0 -7 -40 -9 -122 -6 -594 19 -915 -5 -1192 -87 -55 -17 -148
-37 -206 -46 -113 -17 -566 -42 -576 -32 -4 3 -3 109 1 235 l7 229 162 77 c88
42 224 117 301 165 77 49 143 90 146 90 3 1 32 -8 65 -20z m1019 -690 c49 -5
90 -11 92 -12 10 -11 63 -251 73 -331 14 -110 9 -317 -11 -409 l-12 -58 -71
-34 c-138 -66 -284 -88 -543 -83 l-180 3 -39 34 c-78 67 -165 177 -207 260
-38 77 -42 91 -42 160 0 61 5 87 27 134 58 124 262 291 398 327 107 28 308 32
515 9z m649 -716 c3 -16 24 -138 46 -273 23 -134 43 -246 45 -248 17 -17 164
-43 245 -43 118 0 188 18 312 80 l97 48 30 -31 c37 -38 42 -53 82 -231 56
-252 70 -379 76 -653 l6 -252 -782 0 c-429 0 -781 4 -781 8 0 4 9 49 20 98 58
267 48 565 -32 899 -17 72 -37 138 -46 148 -35 39 -99 4 -89 -50 2 -15 17 -79
31 -142 44 -186 58 -311 58 -496 0 -161 -18 -316 -50 -430 l-8 -30 -325 -3
-325 -2 4 242 c5 270 -9 437 -54 653 -31 150 -49 189 -87 193 -35 4 -57 -13
-57 -43 0 -13 11 -70 24 -127 14 -56 32 -150 41 -208 19 -127 31 -445 20 -593
l-7 -107 -2051 2 -2052 3 -3 123 -3 124 28 -6 c15 -3 84 -15 153 -26 969 -154
1871 -41 2805 349 264 111 335 148 335 173 0 13 -9 153 -20 312 -11 159 -19
291 -17 292 9 9 367 24 570 24 233 0 240 -1 335 -29 193 -57 253 -66 447 -65
162 0 190 3 278 27 121 32 256 96 373 174 111 76 155 98 241 122 37 11 71 20
75 20 3 1 9 -11 12 -26z"/>
<path d="M2432 11076 c-50 -24 -53 -28 -50 -57 5 -47 27 -57 85 -36 26 9 60
17 75 17 26 0 26 -1 -21 -48 -68 -68 -99 -127 -115 -218 -8 -44 -20 -91 -27
-107 -18 -40 1 -77 41 -77 24 0 33 7 49 39 11 21 25 69 32 107 14 83 35 126
83 176 117 120 230 84 297 -92 17 -46 19 -66 13 -160 l-7 -108 27 -17 c24 -16
28 -16 50 -2 21 14 24 25 30 125 8 122 1 163 -45 254 -39 77 -81 122 -137 149
-26 12 -72 33 -102 48 -82 39 -204 42 -278 7z"/>
<path d="M5515 2294 c-166 -20 -286 -88 -353 -203 -23 -39 -27 -58 -27 -122 0
-67 4 -81 30 -124 38 -62 96 -103 171 -121 93 -23 287 -29 441 -14 117 11 141
17 159 35 47 47 37 158 -19 199 -27 20 -40 21 -198 19 l-169 -1 0 44 c0 52
-12 50 161 28 155 -20 193 -14 227 36 30 44 25 96 -13 145 -39 52 -69 63 -201
74 -117 11 -150 11 -209 5z"/>
</g>
</svg>
